<?xml version="1.0" encoding="utf-8"?>
<!-- Generator: Adobe Illustrator 22.1.0, SVG Export Plug-In . SVG Version: 6.00 Build 0)  -->
<svg version="1.1" id="Слой_1" xmlns="http://www.w3.org/2000/svg" xmlns:xlink="http://www.w3.org/1999/xlink" x="0px" y="0px"
	 viewBox="0 0 35.5 35.4" style="enable-background:new 0 0 35.5 35.4;" xml:space="preserve">
<style type="text/css">
	.st0{fill:#0E0F0F;}
	.st1{fill:#FFFFFF;}
</style>
<g>
	<circle class="st0" cx="17.8" cy="17.7" r="17.7"/>
	<g>
		<g>
			<path class="st1" d="M23.3,11c-0.7,0-1.2,0.5-1.2,1.2c0,0.7,0.5,1.2,1.2,1.2c0.7,0,1.2-0.5,1.2-1.2C24.5,11.5,23.9,11,23.3,11z"
				/>
			<path class="st1" d="M17.9,12.6c-2.8,0-5.1,2.3-5.1,5.1c0,2.8,2.3,5.1,5.1,5.1c2.8,0,5.1-2.3,5.1-5.1
				C23,14.8,20.7,12.6,17.9,12.6z M17.9,20.9c-1.8,0-3.3-1.5-3.3-3.3c0-1.8,1.5-3.3,3.3-3.3s3.3,1.5,3.3,3.3
				C21.1,19.5,19.7,20.9,17.9,20.9z"/>
			<path class="st1" d="M21.9,28h-8.3c-3.4,0-6.2-2.8-6.2-6.2v-8.3c0-3.4,2.8-6.2,6.2-6.2h8.3c3.4,0,6.2,2.8,6.2,6.2v8.3
				C28.1,25.2,25.3,28,21.9,28z M13.6,9.2c-2.4,0-4.3,1.9-4.3,4.3v8.3c0,2.4,1.9,4.3,4.3,4.3h8.3c2.4,0,4.3-1.9,4.3-4.3v-8.3
				c0-2.4-1.9-4.3-4.3-4.3H13.6z"/>
		</g>
	</g>
</g>
</svg>
