<?xml version="1.0" encoding="utf-8"?>
<!-- Generator: Adobe Illustrator 22.1.0, SVG Export Plug-In . SVG Version: 6.00 Build 0)  -->
<svg version="1.1" id="Слой_1" xmlns="http://www.w3.org/2000/svg" xmlns:xlink="http://www.w3.org/1999/xlink" x="0px" y="0px"
	 viewBox="0 0 38.5 38" style="enable-background:new 0 0 38.5 38;" xml:space="preserve">
<style type="text/css">
	.st0{fill:#0E0F0F;}
</style>
<path class="st0" d="M19.3,0c-10.5,0-19,8.5-19,19c0,10.5,8.5,19,19,19c10.5,0,19-8.5,19-19C38.3,8.5,29.7,0,19.3,0z M35.6,17.7
	h-7.1c-0.2-5.9-1.6-11-3.7-14.1C30.7,5.7,35.1,11.2,35.6,17.7z M19.3,35.4c-3,0-6.3-6.1-6.5-15.1h13.1
	C25.5,29.3,22.2,35.4,19.3,35.4z M12.7,17.7C13,8.7,16.3,2.6,19.3,2.6c3,0,6.3,6.1,6.5,15.1H12.7z M13.8,3.6
	c-2.1,3.2-3.5,8.2-3.7,14.1H2.9C3.5,11.2,7.8,5.7,13.8,3.6z M2.9,20.3h7.1c0.2,5.9,1.6,11,3.7,14.1C7.8,32.3,3.5,26.8,2.9,20.3z
	 M24.8,34.4c2.1-3.2,3.5-8.2,3.7-14.1h7.1C35.1,26.8,30.7,32.3,24.8,34.4z"/>
</svg>
