<?xml version="1.0" encoding="utf-8"?>
<!-- Generator: Adobe Illustrator 22.1.0, SVG Export Plug-In . SVG Version: 6.00 Build 0)  -->
<svg version="1.1" id="Слой_1" xmlns="http://www.w3.org/2000/svg" xmlns:xlink="http://www.w3.org/1999/xlink" x="0px" y="0px"
	 viewBox="0 0 29.3 38" style="enable-background:new 0 0 29.3 38;" xml:space="preserve">
<style type="text/css">
	.st0{fill:#0E0F0F;}
</style>
<g>
	<g>
		<path class="st0" d="M14.7,37.9L14.7,37.9c-0.4,0-0.7-0.2-1-0.4C13.1,36.8,0,22.6,0,14.8C0,6.7,6.6,0.1,14.7,0.1
			s14.7,6.6,14.7,14.7c0,7.8-13.1,22-13.7,22.6C15.4,37.7,15,37.9,14.7,37.9z M14.7,2.8c-6.6,0-12,5.4-12,12c0,5.2,8,15.2,12,19.8
			c4.1-4.6,12-14.6,12-19.8C26.7,8.2,21.3,2.8,14.7,2.8z"/>
	</g>
	<g>
		<path class="st0" d="M14.7,20.8c-3.6,0-6.6-3-6.6-6.6c0-3.6,3-6.6,6.6-6.6c3.6,0,6.6,3,6.6,6.6C21.3,17.8,18.3,20.8,14.7,20.8z
			 M14.7,10.2c-2.2,0-4,1.8-4,4c0,2.2,1.8,4,4,4c2.2,0,4-1.8,4-4C18.6,12,16.9,10.2,14.7,10.2z"/>
	</g>
</g>
</svg>
