<?xml version="1.0" encoding="utf-8"?>
<!-- Generator: Adobe Illustrator 22.1.0, SVG Export Plug-In . SVG Version: 6.00 Build 0)  -->
<svg version="1.1" id="Слой_1" xmlns="http://www.w3.org/2000/svg" xmlns:xlink="http://www.w3.org/1999/xlink" x="0px" y="0px"
	 viewBox="0 0 38.4 30.3" style="enable-background:new 0 0 38.4 30.3;" xml:space="preserve">
<style type="text/css">
	.st0{fill:#0E0F0F;}
</style>
<path class="st0" d="M32.7,0.2h-27c-3,0-5.5,2.5-5.5,5.5v18.9c0,3,2.5,5.5,5.5,5.5h27c3,0,5.5-2.5,5.5-5.5V5.7
	C38.2,2.6,35.8,0.2,32.7,0.2z M32.7,2.8c0.2,0,0.4,0,0.7,0.1L22,15.8c-0.7,0.8-1.7,1.2-2.8,1.2c-1.1,0-2.1-0.5-2.8-1.2L5,2.9
	c0.2,0,0.4-0.1,0.7-0.1H32.7z M35.6,24.5c0,1.6-1.3,2.9-2.9,2.9h-27c-1.6,0-2.9-1.3-2.9-2.9V5.7c0-0.4,0.1-0.8,0.2-1.1l11.4,13
	c1.2,1.4,2.9,2.1,4.7,2.1c1.8,0,3.5-0.8,4.7-2.1l11.4-13c0.1,0.3,0.2,0.7,0.2,1.1V24.5z"/>
</svg>
