<?xml version="1.0" encoding="utf-8"?>
<!-- Generator: Adobe Illustrator 22.1.0, SVG Export Plug-In . SVG Version: 6.00 Build 0)  -->
<svg version="1.1" id="Слой_1" xmlns="http://www.w3.org/2000/svg" xmlns:xlink="http://www.w3.org/1999/xlink" x="0px" y="0px"
	 viewBox="0 0 35.5 35.4" style="enable-background:new 0 0 35.5 35.4;" xml:space="preserve">
<style type="text/css">
	.st0{fill:#0E0F0F;}
	.st1{fill:#FFFFFF;}
</style>
<g>
	<path class="st0" d="M17.8,0C8,0,0.1,7.9,0.1,17.7c0,7.2,4.3,13.4,10.5,16.1c0-0.5,0-1,0-1.5c0.1-1.7,0.3-2.3,2.5-11.6
		c0-0.1,0-0.3-0.1-0.4c-0.5-1.4-0.6-2.9-0.2-4.4c1-3.2,4.6-3.4,5.2-0.8c0.4,1.6-0.6,3.7-1.4,6.9c-0.7,2.6,2.4,4.4,5,2.5
		c2.4-1.7,3.3-5.9,3.2-8.9c-0.3-5.9-6.8-7.2-10.9-5.3c-4.7,2.2-5.8,8-3.7,10.7c0.3,0.3,0.5,0.5,0.4,0.9c-0.1,0.5-0.3,1.1-0.4,1.6
		C10,24,9.7,24.1,9.3,24c-0.8-0.3-1.4-0.8-2-1.5C5.5,20.3,5,15.8,7.4,12.1c2.6-4.2,7.6-5.8,12.1-5.3c5.4,0.6,8.8,4.3,9.4,8.4
		c0.3,1.9,0.1,6.6-2.6,9.9c-3.1,3.8-8,4-10.3,1.7c-0.2-0.2-0.3-0.4-0.5-0.6c0,0.1,0,0.2-0.1,0.2c-1.1,4.3-1.2,5.3-2.4,7.3
		c-0.2,0.3-0.4,0.6-0.6,0.9c1.7,0.5,3.4,0.8,5.3,0.8c9.8,0,17.7-7.9,17.7-17.7C35.5,7.9,27.5,0,17.8,0z"/>
	<path class="st1" d="M15.4,26.4c0-0.1,0-0.1,0.1-0.2c0.2,0.2,0.3,0.4,0.5,0.6c2.3,2.3,7.3,2.1,10.3-1.7c2.7-3.3,2.9-8,2.6-9.9
		c-0.6-4.2-4-7.8-9.4-8.4C15,6.3,10.1,7.9,7.4,12.1C5,15.8,5.5,20.3,7.3,22.5c0.5,0.7,1.2,1.2,2,1.5c0.4,0.2,0.7,0,0.8-0.4
		c0.1-0.5,0.3-1.1,0.4-1.6c0.1-0.3-0.1-0.6-0.4-0.9c-2.1-2.7-1.1-8.5,3.7-10.7c4.1-1.9,10.6-0.6,10.9,5.3c0.2,3-0.8,7.1-3.2,8.9
		c-2.6,1.9-5.7,0-5-2.5c0.8-3.1,1.8-5.3,1.4-6.9c-0.6-2.6-4.2-2.4-5.2,0.8c-0.5,1.5-0.4,2.9,0.2,4.4c0,0.1,0.1,0.2,0.1,0.4
		c-2.2,9.3-2.4,9.9-2.5,11.6c0,0.5,0,1,0,1.5c0.6,0.3,1.3,0.5,2,0.8c0.2-0.3,0.4-0.6,0.6-0.9C14.2,31.7,14.3,30.7,15.4,26.4z"/>
</g>
</svg>
